<svg width="640" height="640" xmlns="http://www.w3.org/2000/svg">
	<rect x="0" y="0" width="640" height="640" rx="20" ry="20" />
	<path
		d="M106.5 62.5h406c3.274 44.565 5.16 89.36 6.002 134.062-1.184 8.16-16.635 2.048-24.086 3.938-7.549-2.253-22.89 5.18-24.023-5.048-5.97-29.618-14.106-59.035-17.893-88.952h-192v188h115c1.81-23.643 8.418-46.604 12-70h41v181h-41c-3.23-23.402-9.224-46.48-11-70h-116v198h207c5.062-32.894 13.352-65.2 19-98h47c0 47.38-3.107 94.677-5 142h-422v-41c25.324-1.22 50.626-3.425 76-3v-426c-25.38.1-50.662-2.867-76-4v-41z"
		fill="#fff" />
</svg>
